<svg xmlns="http://www.w3.org/2000/svg" xmlns:xlink="http://www.w3.org/1999/xlink" viewBox="0 0 31.81 34.56"><defs><style>.cls-1{fill:none;}.cls-2{fill:#fff7dc;}.cls-3{clip-path:url(#clip-path);}.cls-4{fill:#7595ec;}.cls-5{fill:#f9865f;}.cls-6{fill:#2a1e33;}</style><clipPath id="clip-path"><circle class="cls-1" cx="15.9" cy="15.9" r="15.9"/></clipPath></defs><title>avatar-active</title><g id="Layer_2" data-name="Layer 2"><g id="OBJECTS"><circle class="cls-2" cx="15.9" cy="15.9" r="15.9"/><g class="cls-3"><path class="cls-4" d="M2.36,30s3.94-7.35,9.14-9.32,15.77.36,18.1,6.1-4.84,8.06-14.16,7.7S2.36,30,2.36,30Z"/><path class="cls-5" d="M15.67,21.07c-2.08.86-2.6,3.29-.35,3.46s6.76-2.94,6.76-2.94l.69-4.14c.34-4.33,1.46-11.17.14-11.67-1.87-.71-7.48-.84-9.17-.44C12.41,5.65,11.66,8,11.34,9c-1,3.12-3.47,12.39,4.89,10Z"/><path class="cls-6" d="M14.24,7.52a6.3,6.3,0,0,1-5.42,3.65C4.9,11.26,4,5.3,7,4.67a14.36,14.36,0,0,1,6.41.54s-1.43-2.76,2-2.76a4.18,4.18,0,0,1,4.18,2.76S21,3.43,22.16,3.87s.36,1.78.36,1.78,2.49-.27,2.31.89A7,7,0,0,1,23.5,9.12s0,9.16-1.43,9.34S19.76,14,19.76,14l-.44-4.44S14.87,11.08,14.24,7.52Z"/></g></g></g></svg>