<svg xmlns="http://www.w3.org/2000/svg" viewBox="0 0 469.33 351.24"><defs><style>.cls-1,.cls-16{fill:#fff;}.cls-2{fill:#a0c6f4;}.cls-10,.cls-18,.cls-20,.cls-21,.cls-22,.cls-3{fill:none;}.cls-16,.cls-18,.cls-3{stroke:#2a1e17;}.cls-10,.cls-16,.cls-18,.cls-20,.cls-22,.cls-3{stroke-linecap:round;stroke-linejoin:round;}.cls-4{fill:#2a1e17;}.cls-5{fill:#f9865f;}.cls-6{fill:#2a1e33;}.cls-7{fill:#7595ec;}.cls-8{fill:#ff8a66;}.cls-9{fill:#fff7c9;}.cls-10{stroke:#2a1e33;}.cls-11{fill:#ff6d66;}.cls-12{fill:#fad8b0;}.cls-13{fill:#c6cbcb;}.cls-14{fill:#fff7dc;}.cls-15{fill:#ffe1c0;}.cls-17{fill:#91ba83;}.cls-18{stroke-width:0.67px;}.cls-19{fill:#96bd89;}.cls-20{stroke:#ff6d66;}.cls-21{stroke:#fad8b0;stroke-miterlimit:10;}.cls-22{stroke:#a0c6f4;}</style></defs><title>hero-image</title><g id="Layer_2" data-name="Layer 2"><g id="OBJECTS"><path class="cls-1" d="M751.93,241.86c-32.4-30.37-70.36-38.21-80.39-39.81,6.76-18.23,17.2-45.33,19.8-49.34a37.47,37.47,0,0,1,5.07-.29c7.37,0,23.15,1.53,46,11.8,33,14.83,41.77,31.51,43.51,35.59Z" transform="translate(-427.27 -139.34)"/><path class="cls-2" d="M696.41,154.42c7.21,0,22.67,1.51,45.15,11.62,29.81,13.42,39.44,28.42,42,33.49l-31.82,39.41a161.08,161.08,0,0,0-54.08-32.14,149.49,149.49,0,0,0-23.38-6.33c7.47-20.07,15.59-40.72,18.32-45.89.89-.08,2.17-.16,3.83-.16m0-4a33.83,33.83,0,0,0-6.07.42c-2.34.78-21.54,52.84-21.54,52.84s45.57,4.65,83.32,41.12l36-44.62s-6-20.26-45-37.78c-22.83-10.27-38.74-12-46.79-12Z" transform="translate(-427.27 -139.34)"/><path class="cls-3" d="M675.49,207.73s44.81,4.52,72.41,29.87" transform="translate(-427.27 -139.34)"/><polygon class="cls-2" points="286.9 66.2 303.62 33.7 320.8 67.59 286.9 66.2"/><polygon class="cls-3" points="290.15 65.74 306.87 33.24 324.05 67.13 290.15 65.74"/><path class="cls-3" d="M701.74,148.44S752,153,783.2,190.08" transform="translate(-427.27 -139.34)"/><path class="cls-4" d="M727.41,292.46c-2.76-2-4.57-3.39-4.57-3.39.76-1,12.85-13.89,19.85-24.27C742.69,264.8,728.53,293.29,727.41,292.46Z" transform="translate(-427.27 -139.34)"/><path class="cls-3" d="M556.12,198.59c1.35,2.25,1.94,1.35,5.83,1s9.43,2.54,11.37,7.33,1.35,5.53.3,6.13-8.52,1.5-8.82,3" transform="translate(-427.27 -139.34)"/><polygon class="cls-5" points="229.62 302.71 226.13 296.82 213.77 317.43 217.01 319.93 229.62 302.71"/><path class="cls-5" d="M574.8,391s-6.41-10.41-3.66-15.52l20.44,2.19Z" transform="translate(-427.27 -139.34)"/><path d="M574.8,391l1.22,2.82-3.77,14.72a5,5,0,0,0,1.59,5.07h0l18.69-27.63a6.44,6.44,0,0,0-.95-8.31l-4.18-3.88Z" transform="translate(-427.27 -139.34)"/><path class="cls-6" d="M564.8,216.09c5.85-.14,13.27-.51,11.78-5s-7-15.57-19.65-12.24c0,0-4.45,3.71,1.11,10.39S564.8,216.09,564.8,216.09Z" transform="translate(-427.27 -139.34)"/><path class="cls-7" d="M594.42,377.87s-10-29.5-1.54-42.45c7-10.69,29.78,6.69,32.9,9L642.09,315s-3.76-5.28-13-10.45-47.43-20.65-65.38,7.67c-6.63,10.46-6.73,55.37,6,72.58Z" transform="translate(-427.27 -139.34)"/><path class="cls-3" d="M594.42,377.87s-10-29.5-1.54-42.45c7-10.69,29.78,6.69,32.9,9" transform="translate(-427.27 -139.34)"/><path class="cls-7" d="M642.09,315c-7.42,7.81-29.41,45.85-34.36,64-6.61,24.32-4.12,44.49,32.24,84l17.57-25.6s-12.36-18.76-10-36.45c3.34-25.59,21.55-50.4,30.76-66.14Z" transform="translate(-427.27 -139.34)"/><polygon class="cls-4" points="217.61 178.96 246.84 201.91 255.58 188.63 217.61 178.96"/><path class="cls-8" d="M812.8,294.18q6.84,1.47,10.42,5.21c2.39,2.5,1.31,3.8.44,4.56s-4.24-.11-7.17-2.71S812.8,294.18,812.8,294.18Z" transform="translate(-427.27 -139.34)"/><path class="cls-5" d="M722.84,289.07c.76-1,12.85-13.89,19.85-24.27,0,0,21.15,23.7,23.45,24.47.85.28,6,.21,12.48.15,10.88-.12,25.35-.23,28.55,1.38,5.1,2.54,8.16,3.82,9.43,7.39s1.78,5.9-1.27,6.11c-3.57.26-5.86-4.33-5.86-4.33A71.81,71.81,0,0,1,799,304.56s-27.11,10.52-45.23,5.43C748.84,308.6,722.84,289.07,722.84,289.07Z" transform="translate(-427.27 -139.34)"/><path class="cls-5" d="M558.51,194.4c-2.32.89-3.74,1.95-2.39,4.19s1.94,1.35,5.83,1,9.43,2.54,11.37,7.33,1.35,5.53.3,6.13-8.52,1.5-8.82,3,3,5.91,9.91,5.62l1.64-.3s14.47,14.13,16.57,16.22,17.48,12.52,26,14.64c6.44,1.61,19.5-.46,27.34-2,3.81-.75,6.4-1.36,6.4-1.36s-5.89-10.61-7.09-26.91c0,0-14.08,2.26-23.44,4.32,0,0-21.84-12.18-32.46-17.57,0,0-9.28-11.36-13.62-12.86S561.65,193.21,558.51,194.4Z" transform="translate(-427.27 -139.34)"/><path class="cls-4" d="M646.22,250.28c3.81-.75,6.4-1.36,6.4-1.36s-7.13-9-8.32-25.28c0,0-3.22,3.47-2.22,12.7C643.34,248,646.22,250.28,646.22,250.28Z" transform="translate(-427.27 -139.34)"/><path class="cls-9" d="M644,221.81s.2,19.93,5.54,28.24l1.91-.77s-25.15,29.43-33.29,48.66c-1.33,3.15,52.23,37.36,60.14,36.88,0,0,26.1-39.83,35-51.64l9.6,7.44s18.81-19.06,19.82-25.82c0,0-18.17-22.11-33-28.59S681.5,218.65,665.53,219C651.71,219.21,644,221.81,644,221.81Z" transform="translate(-427.27 -139.34)"/><polygon class="cls-4" points="295.59 151.28 286 143.84 287.53 139.68 295.59 151.28"/><path class="cls-5" d="M737.46,211.83c-1.68,5.23-6.53,20.34-11.94,22.2s-11-.47-11-.47l-5.76,2.94c-.64,1.93-5.19,3.59-11.06,3.82-4.35.17-7-5.42-5.71-9.46.59-1.86,2.8-11,2.8-11s4.66-17.16,9-20.7,8.32-7.06,19.77-2.43C741,203.81,737.46,211.83,737.46,211.83Z" transform="translate(-427.27 -139.34)"/><path class="cls-6" d="M702.69,212.58c-.77,3.2-4.1,9.62-6.29,8.46s-2.95-4.1-1.41-9.75,2.83-18.47,7.19-20.78,6.29.38,6.29.38-1.93-9.36,3.72-10.65c0,0,1.92-.89,1.15,5.52a8.59,8.59,0,0,1,9.24-5.13c7,.77,9.49,10.65,9.49,10.65a3.57,3.57,0,0,1,3.72-2.7c3.21,0,8.09,4.75,6.93,10,0,0,8.21-2.57,12.57,4s3.85,13.73-6.67,16.55c-11,2.95-10.9-9.88-12.57-11.55s-3.46-3.59-9.62-1.28-12.58-4.49-12.58-4.49-1,8.21-2.05,9-3.08,1.8-2.57-2.05,1.16-3.47.77-4.49-2.12-4.27-5.77-1.41C700.13,206,702.69,212.58,702.69,212.58Z" transform="translate(-427.27 -139.34)"/><path class="cls-10" d="M704.44,214c-2.45-2-4.15-5.68-2-9.3s5.68-4.11,6.75-2.74,1.49,3.68.48,6.42" transform="translate(-427.27 -139.34)"/><path d="M644.29,459.27l1.22,2.81-3.77,14.72a5,5,0,0,0,1.59,5.07h0L662,454.24a6.44,6.44,0,0,0-.95-8.31l-4.18-3.88Z" transform="translate(-427.27 -139.34)"/><path class="cls-10" d="M708.47,190.89s-1.44-4.65-5.73-5.88" transform="translate(-427.27 -139.34)"/><line class="cls-3" x1="190.25" y1="157.19" x2="242.03" y2="84.86"/><path class="cls-3" d="M690.65,229.26c-1.87,2.43-2.72,12.87,5.87,13.54a23.22,23.22,0,0,0,14.07-3.09" transform="translate(-427.27 -139.34)"/><path class="cls-3" d="M576,195.9s5.92,7.83,6.85,10.62" transform="translate(-427.27 -139.34)"/><path class="cls-3" d="M797.64,300.93s4,3.25,11.83-1c2.85-1.53.82-5.14-2.8-4.24s-7.9-.45-7.9-.45" transform="translate(-427.27 -139.34)"/><path class="cls-3" d="M814.16,294.63s3.79,4.43,3.69,7.06" transform="translate(-427.27 -139.34)"/><path class="cls-3" d="M758.32,294.15s3.43-4.57,7.82-4.88" transform="translate(-427.27 -139.34)"/><path class="cls-3" d="M613.67,233.71s2-6.24,8.42-7.38" transform="translate(-427.27 -139.34)"/><path class="cls-3" d="M631.06,328.39,623.4,343s-25.24,42.71-16.67,70.31" transform="translate(-427.27 -139.34)"/><path class="cls-3" d="M653.42,377.39l24.83-42.57S710.8,287.61,714.13,281l11.49-21.25" transform="translate(-427.27 -139.34)"/><path class="cls-3" d="M621,301.07s44.17,32.2,57.26,33.75" transform="translate(-427.27 -139.34)"/><path class="cls-3" d="M644,221.81s0,20.21,5.41,28.49" transform="translate(-427.27 -139.34)"/><path class="cls-3" d="M741.27,261.6c-1.39,8.32-19.82,25.81-19.82,25.81" transform="translate(-427.27 -139.34)"/><circle class="cls-4" cx="176.44" cy="223.36" r="2.62"/><polygon class="cls-3" points="422.48 279.71 421.03 269.68 429.58 275.37 425.11 276.34 422.48 279.71"/><path class="cls-3" d="M566,247.82c-16.21-14.31-43,21.36,55,134.9,56.55,65.5,101,71.37,107,48.58,10.8-40.88-28.2-51.21-13.68-35.2,21.1,23.28,81.11,28.2,125.84,6.48,44.13-21.44,17-54.73,14.26-56.68" transform="translate(-427.27 -139.34)"/><circle class="cls-4" cx="413.63" cy="263.03" r="2.62"/><line class="cls-3" x1="375.47" y1="284.44" x2="453.2" y2="240.62"/><circle class="cls-4" cx="140.35" cy="110.6" r="2.62"/><circle class="cls-11" cx="207.22" cy="56.45" r="5.63"/><path class="cls-2" d="M532.41,152.88a2.48,2.48,0,1,0,2.47,2.48,2.48,2.48,0,0,0-2.47-2.48Z" transform="translate(-427.27 -139.34)"/><circle class="cls-12" cx="436.53" cy="318.25" r="2.47"/><path class="cls-6" d="M819.61,345.89,793,333.42a2.77,2.77,0,0,1,.07-5l49.46-21.76a2.72,2.72,0,0,1,2.2,0l34,14.58Z" transform="translate(-427.27 -139.34)"/><path class="cls-13" d="M818,304.89c.06,11,1.64,41,1.64,41l59.12-24.69-1.33-41.75a3.59,3.59,0,0,0-5.08-3.16l-50.89,23.2A5.87,5.87,0,0,0,818,304.89Z" transform="translate(-427.27 -139.34)"/><path class="cls-3" d="M819.61,345.89l59.12-24.69-1.33-41.75s-.39-4.56-5.08-3.16" transform="translate(-427.27 -139.34)"/><line class="cls-3" x1="420.95" y1="176.54" x2="424.94" y2="167.11"/><line class="cls-3" x1="424.94" y1="176.54" x2="428.93" y2="167.11"/><circle class="cls-11" cx="115.79" cy="276.97" r="2.47"/><circle class="cls-11" cx="324.32" cy="289.23" r="3.44"/><path class="cls-14" d="M568.7,453a73.37,73.37,0,0,0,31.23,6.7,1.42,1.42,0,0,1,1.4,1.59l-2.16,17.12A1.41,1.41,0,0,1,598,479.6c-4.38.83-22,3.25-35.22-8a1.4,1.4,0,0,1-.44-1.43l4.36-16.33A1.41,1.41,0,0,1,568.7,453Z" transform="translate(-427.27 -139.34)"/><path class="cls-3" d="M570.25,458s7.62,10.71,10.34,12.25,17.4-7.22,17.4-7.22" transform="translate(-427.27 -139.34)"/><line class="cls-3" x1="160.51" y1="329.43" x2="168.52" y2="337.66"/><line class="cls-3" x1="149.38" y1="327.84" x2="140.01" y2="330.39"/><rect class="cls-15" x="377.72" y="111.05" width="8.95" height="8.95"/><polygon class="cls-2" points="378.93 231.74 381.59 236.35 384.25 240.96 378.93 240.96 373.62 240.96 376.27 236.35 378.93 231.74"/><path class="cls-3" d="M591.15,167l.7-20.92c-.08-2,.72-2.57,1.92-2.84,5.68-1.25,23-5.1,41.73.45,2.43.72,2.35,2,2.31,3.16l-.67,19.94a2.69,2.69,0,0,1-3.28,2.27,146,146,0,0,0-20.52-1,116.44,116.44,0,0,0-19.68,1.59C591.8,170,591.1,168.64,591.15,167Z" transform="translate(-427.27 -139.34)"/><path class="cls-3" d="M597.47,164l10.94-12.8,12.1,11.95C616.33,161.74,597.47,164,597.47,164Z" transform="translate(-427.27 -139.34)"/><polyline class="cls-3" points="187.83 17.74 196.67 10.66 204.12 15.98 204.4 24.29 193.23 23.75"/><ellipse class="cls-3" cx="600.09" cy="149.99" rx="1.83" ry="2.15" transform="translate(-36.77 592.62) rotate(-84.23)"/><path class="cls-3" d="M802.55,438.71l7.33,13.54c.77,1.21.5,1.9-.17,2.52C806.57,457.68,797,466.54,783,470c-1.81.45-2.24-.4-2.64-1.15l-7-12.91a2,2,0,0,1,1.24-2.67,105.3,105.3,0,0,0,13.4-7A85.23,85.23,0,0,0,800,438C801,437,802,437.65,802.55,438.71Z" transform="translate(-427.27 -139.34)"/><path class="cls-3" d="M799.67,443l-2.19,12.19-12.12-3.09C788.51,451.42,799.67,443,799.67,443Z" transform="translate(-427.27 -139.34)"/><polyline class="cls-3" points="363.75 314.58 360.76 322.36 354.06 321.75 350.79 316.57 358.08 312.76"/><ellipse class="cls-3" cx="803.19" cy="452.84" rx="1.58" ry="1.34" transform="translate(-542.83 235.54) rotate(-24.56)"/><path class="cls-16" d="M766.85,207.53l29.79,22.8a1.47,1.47,0,0,0,2.08-.29l4.5-6.1a1.46,1.46,0,0,0-.27-2l-29.37-23.51a1.47,1.47,0,0,0-2.11.29l-4.92,6.8A1.46,1.46,0,0,0,766.85,207.53Z" transform="translate(-427.27 -139.34)"/><polygon class="cls-11" points="341.78 67.17 349 72.24 353.27 67.15 346.04 61.12 341.78 67.17"/><polygon class="cls-12" points="351.72 74.22 358.96 79.96 362.84 75.19 355.55 69.28 351.72 74.22"/><polygon class="cls-2" points="361.39 82.16 368.62 87.23 372.06 82.81 365.22 77.08 361.39 82.16"/><path class="cls-16" d="M826.3,175.65l6.79,57a2.25,2.25,0,0,0,2.54,2l11.5-1.58a2.24,2.24,0,0,0,1.93-2.45l-5.57-57.34a2.25,2.25,0,0,0-2.57-2l-12.71,1.86A2.25,2.25,0,0,0,826.3,175.65Z" transform="translate(-427.27 -139.34)"/><polygon class="cls-11" points="402.5 37.64 404.65 50.98 414.79 50.23 413.68 35.86 402.5 37.64"/><polygon class="cls-17" points="405.38 56.08 406.81 70.15 416.19 69.31 414.89 55.01 405.38 56.08"/><polygon class="cls-12" points="406.99 75.18 409.14 88.52 417.67 87.58 416.64 73.95 406.99 75.18"/><path class="cls-16" d="M811.48,187.79l18.8,55.27a1.79,1.79,0,0,0,2.3,1.11l11.78-4.24a1.8,1.8,0,0,0,1.1-2.23l-17.65-55.81a1.8,1.8,0,0,0-2.34-1.14l-12.92,4.79A1.77,1.77,0,0,0,811.48,187.79Z" transform="translate(-427.27 -139.34)"/><polygon class="cls-2" points="388.02 49.46 392.9 62.07 402.66 59.22 398.59 45.39 388.02 49.46"/><polygon class="cls-5" points="394.68 66.9 399 80.37 408 77.59 403.76 63.87 394.68 66.9"/><polygon class="cls-12" points="400.22 85.25 405.1 97.85 413.25 95.15 409.41 82.03 400.22 85.25"/><rect class="cls-7" x="142.08" y="118.26" width="105.91" height="23.81" rx="5.48"/><rect class="cls-1" x="153.36" y="125.27" width="55.38" height="3.62" rx="1.81"/><line class="cls-3" x1="153.88" y1="133.59" x2="241.87" y2="133.59"/><path class="cls-17" d="M533,213.17h2.22a1.7,1.7,0,0,1,1.7,1.7v3.32a1.7,1.7,0,0,1-1.7,1.7H533a0,0,0,0,1,0,0v-6.72A0,0,0,0,1,533,213.17Z" transform="translate(-93.22 -463.84) rotate(47.59)"/><rect class="cls-3" x="523.14" y="206.31" width="12.43" height="8.57" rx="0.98" transform="translate(303.59 604.12) rotate(-132.41)"/><rect class="cls-11" x="79.13" y="105.4" width="8.87" height="8.1"/><polyline class="cls-3" points="79.13 100.19 79.13 105.4 73.83 105.4"/><rect class="cls-12" x="371.38" y="13.93" width="8.87" height="8.1"/><polyline class="cls-3" points="371.38 8.72 371.38 13.93 366.08 13.93"/><path class="cls-3" d="M558.57,203.34c-92-38.12-162.76,35.3,10.59,147.72,13.65,8.86,34.59,12,34.59,12" transform="translate(-427.27 -139.34)"/><circle class="cls-4" cx="46.71" cy="66.56" r="2.62"/><polygon class="cls-3" points="30.03 52.17 32.9 49.41 39.49 53.19 42.81 63.42 32.68 59.18 30.03 52.17"/><polygon class="cls-3" points="32.9 49.41 30.03 52.17 28.42 50.22 31.17 47.58 32.9 49.41"/><line class="cls-3" x1="42.81" y1="63.42" x2="36.22" y2="56.19"/><path class="cls-16" d="M486,386.34l7.14,36.84a1.48,1.48,0,0,0,1.75,1.16l7.42-1.58a1.47,1.47,0,0,0,1.14-1.69L497.11,384a1.47,1.47,0,0,0-1.77-1.18l-8.19,1.82A1.45,1.45,0,0,0,486,386.34Z" transform="translate(-427.27 -139.34)"/><polygon class="cls-11" points="61.08 247.7 63.12 256.29 69.68 255.32 68.28 246.01 61.08 247.7"/><polygon class="cls-12" points="63.84 259.58 65.44 268.67 71.51 267.68 69.98 258.42 63.84 259.58"/><polygon class="cls-2" points="65.8 271.94 67.83 280.53 73.34 279.5 72.03 270.68 65.8 271.94"/><polygon class="cls-3" points="263.44 339.31 293.64 331.23 294.8 334.5 264.25 342.43 263.44 339.31"/><line class="cls-3" x1="259.24" y1="335.09" x2="260.12" y2="337.83"/><line class="cls-3" x1="258.39" y1="336.88" x2="260.94" y2="336"/><line class="cls-3" x1="257.78" y1="345.56" x2="259.42" y2="350.74"/><line class="cls-3" x1="256.38" y1="348.84" x2="260.92" y2="347.4"/><line class="cls-3" x1="250.87" y1="337.02" x2="253.02" y2="343.88"/><line class="cls-3" x1="248.74" y1="341.29" x2="255.1" y2="339.26"/><polygon class="cls-18" points="43.17 11.15 24.06 2.52 24.85 0.34 44.08 9.19 43.17 11.15"/><line class="cls-18" x1="43.56" y1="15.13" x2="44.27" y2="13.33"/><line class="cls-18" x1="44.76" y1="14.56" x2="43.06" y2="13.93"/><line class="cls-18" x1="48.76" y1="10.31" x2="50.11" y2="6.93"/><line class="cls-18" x1="50.88" y1="9.2" x2="47.92" y2="8.02"/><line class="cls-18" x1="48.72" y1="17.68" x2="50.52" y2="13.21"/><line class="cls-18" x1="51.64" y1="16.37" x2="47.48" y2="14.72"/><path class="cls-12" d="M541.89,311.94c-13.48-9.7-26.72-24.78-20.91-40.27,0,0,9.29-6.19,24,1.55L559.7,281Z" transform="translate(-427.27 -139.34)"/><path class="cls-1" d="M535.78,376.57c-6.07-2.87-31.95-16.35-36.56-39.38-4-19.88,11.24-46.71,18.86-58.57-.49,15.73,15.31,29.05,22.93,34.53a81.52,81.52,0,0,0,21.23,11.22Z" transform="translate(-427.27 -139.34)"/><path class="cls-12" d="M516.92,283.3c1.65,10.46,9.63,21.29,23.21,31.07a81.33,81.33,0,0,0,20,10.81l-25,49.4c-7.64-3.8-30.21-16.66-34.42-37.68-3.49-17.47,8.35-40.64,16.23-53.6M521,271.67s-28.65,38.72-23.23,65.82,38.72,41,38.72,41l27.87-55c-8.71-3.19-14.37-5.79-22.45-11.61-13.48-9.7-26.72-24.78-20.91-40.27Z" transform="translate(-427.27 -139.34)"/><path class="cls-3" d="M513.45,294.17a33.19,33.19,0,0,0,17.22,23.88" transform="translate(-427.27 -139.34)"/><line class="cls-3" x1="111.72" y1="184.27" x2="127.27" y2="192.6"/><path class="cls-3" d="M515.67,316.39s5,11.11,21.1,18.33" transform="translate(-427.27 -139.34)"/><path class="cls-3" d="M502.89,318.05s.56,11.67,8.33,15.56" transform="translate(-427.27 -139.34)"/><path class="cls-3" d="M520.67,277.51s-1.44,15,21.22,34.43" transform="translate(-427.27 -139.34)"/><path class="cls-3" d="M529,280.29s7.22-.56,17.77,7.22" transform="translate(-427.27 -139.34)"/><path class="cls-3" d="M495,328.11c-.46,7.43.47,34.36,39.47,51.54" transform="translate(-427.27 -139.34)"/><path class="cls-17" d="M744.07,313.13l-16.54,33.15s11.22,4.13,2.45,17c0,0,20.74,8.6,34.31-13.73S744.07,313.13,744.07,313.13Z" transform="translate(-427.27 -139.34)"/><path class="cls-1" d="M706.21,414.45c-8.37,0-17.2-3.42-26.27-10.17L710.88,353l18.41,11.59.12.05a28.44,28.44,0,0,0,10.05,1.74h0a27.7,27.7,0,0,0,16.23-5.13L733.07,400c-.05.07-9.79,14.48-26.86,14.48Z" transform="translate(-427.27 -139.34)"/><path class="cls-19" d="M711.38,355.1l17,10.71.22.14.23.09a30,30,0,0,0,10.63,1.86,29.56,29.56,0,0,0,12.1-2.54l-19.74,33.77c-.64.94-9.8,13.82-25.6,13.82-7.71,0-15.87-3.05-24.29-9.07l29.45-48.78m52.91-5.56c-7.67,12.62-17.62,15.36-24.83,15.36a27.08,27.08,0,0,1-9.48-1.63l-19.59-12.33L678,404.66C688.82,413,698.29,416,706.22,416c18.11,0,28.15-15.22,28.15-15.22l29.92-51.19Z" transform="translate(-427.27 -139.34)"/><path class="cls-3" d="M727.53,346.28s12.34,4.36,2.45,17" transform="translate(-427.27 -139.34)"/><path class="cls-3" d="M710,349.78s16.81,15.4,26.11,15.29,20.22-2.31,26.65-13.41" transform="translate(-427.27 -139.34)"/><path class="cls-3" d="M712.07,369.7s11.53,10.24,24.43,6.95" transform="translate(-427.27 -139.34)"/><path class="cls-3" d="M724.18,385s6.05,4.53,14.51.24" transform="translate(-427.27 -139.34)"/><path class="cls-3" d="M696.34,391.32s14,13.89,35.95,4.73" transform="translate(-427.27 -139.34)"/><path class="cls-3" d="M703.94,377.77s5.7,4.08,9.27,5.38" transform="translate(-427.27 -139.34)"/><path class="cls-3" d="M746.91,322.75s12.75,4.17,14.28,21" transform="translate(-427.27 -139.34)"/><path class="cls-3" d="M753.32,343.54s5.87,9.09-4.05,18.17" transform="translate(-427.27 -139.34)"/><path class="cls-3" d="M679.14,407.2s32,27.42,55.25-4.64" transform="translate(-427.27 -139.34)"/><line class="cls-20" x1="20.78" y1="163.44" x2="28.24" y2="163.44"/><line class="cls-20" x1="436.53" y1="73.67" x2="443.99" y2="73.67"/><line class="cls-21" x1="236.38" y1="22.47" x2="243.85" y2="22.47"/><line class="cls-21" x1="450.78" y1="112.38" x2="458.12" y2="113.7"/><line class="cls-22" x1="157.6" y1="298.61" x2="165.07" y2="298.61"/><circle class="cls-17" cx="466.86" cy="205.57" r="2.47"/><circle class="cls-17" cx="2.47" cy="86.95" r="2.47"/></g></g></svg>