<svg xmlns="http://www.w3.org/2000/svg" viewBox="0 0 138.43 21.96"><defs><style>.cls-1{font-size:6.21px;font-family:Poppins-Regular, Poppins;letter-spacing:-0.05em;}.cls-1,.cls-2{fill:#2a1e33;}.cls-2{font-size:13.31px;font-family:Poppins-Bold, Poppins;font-weight:700;letter-spacing:-0.05em;}.cls-3{font-family:Poppins-Light, Poppins;font-weight:300;letter-spacing:-0.05em;}.cls-4{fill:#7595ec;}.cls-5{fill:#f9865f;}.cls-6{fill:#2a1e17;}.cls-7{fill:none;stroke:#fff;stroke-linecap:round;stroke-linejoin:round;}</style></defs><title>logo</title><g id="Layer_2" data-name="Layer 2"><g id="OBJECTS"><text class="cls-1" transform="translate(111.25 14.18)">By Design</text><text class="cls-2" transform="translate(14.15 13.89)">Landing<tspan class="cls-3" x="50.63" y="0">Page</tspan></text><circle class="cls-4" cx="105.69" cy="12.01" r="2.12"/><path class="cls-5" d="M93.52,56.62l4-.1,2,6.24a2.76,2.76,0,0,1-.11,1.94l-4,8.85-4.14-8.91a2.72,2.72,0,0,1-.06-2.13Z" transform="translate(-90.99 -54.13)"/><path class="cls-6" d="M97.5,56.52l-4,.1,0-.64a2,2,0,0,1,2-1.85h0a1.94,1.94,0,0,1,1.91,1.8Z" transform="translate(-90.99 -54.13)"/><line class="cls-7" x1="4.39" y1="19.42" x2="4.4" y2="9.64"/></g></g></svg>