<svg id="Layer_1" data-name="Layer 1" xmlns="http://www.w3.org/2000/svg" xmlns:xlink="http://www.w3.org/1999/xlink" viewBox="0 0 1920 1080"><defs><style>.cls-1{fill:none;}.cls-2{clip-path:url(#clip-path);}.cls-3{fill:#ffe2b3;}</style><clipPath id="clip-path"><rect id="SVGID" class="cls-1" x="0.15" y="-0.37" width="1919.85" height="1151.35"/></clipPath></defs><title>background</title><g class="cls-2"><path class="cls-3" d="M-20.77,1043.49C3.35,967.37,86.35,927.72,163.37,906.63a955,955,0,0,1,239.49-33.76C550.29,871,706.63,901.61,839.14,837c114.32-55.77,186.08-171.84,239.25-287.4,25.3-55,51.25-115.19,103.92-145.05,59.67-33.83,134-18,201.93-27.64,122.62-17.5,217.7-118.71,275.34-228.34,29.76-56.59,54-119,102.8-160.28,44.65-37.8,105-52.91,163.55-52.85,52.72,416.75,74.67,838.66,60.09,1258.48-483.68,122.39-991.29-26.56-1490.16-19.26-176.58,2.59-352.2,24.86-527.91,42.59-8,.81-17.13,1.2-22.76-4.51-5.39-5.46-5.16-14.15-4.57-21.81C-54.87,1131.85-38.65,1100-20.77,1043.49Z"/></g><g class="cls-2"><path class="cls-3" d="M-32.19,237.11C29.68,272.4,104.74,286.27,176,275.57S314.17,229.68,361.61,178c22.57-24.61,40.71-52.61,62.7-77.68s49-47.78,82-56.77c16.12-4.38,33.07-5.32,49.83-5a319.83,319.83,0,0,1,98.71,17c16.62,5.75,32.75,13,50,16.71,60.27,12.91,127.53-26.54,142.48-83.56-55.21-34.59-125.94-43-192-44.73C433.41-62,210.1-59.71-8.89-94.54q-26,180-46,360.65"/></g></svg>