{
  "accessors": [
    {
      "bufferView": 2,
      "componentType": 5126,
      "count": 45504,
      "max": [
        0.055229000747203827,
        -0.0050880000926554203,
        0.13860200345516205
      ],
      "min": [
        -0.046284999698400497,
        -0.10835099965333939,
        -0.11662299931049347
      ],
      "type": "VEC3"
    },
    {
      "bufferView": 2,
      "byteOffset": 546048,
      "componentType": 5126,
      "count": 45504,
      "max": [
        0.99999749660491943,
        0.99999874830245972,
        0.99998646974563599
      ],
      "min": [
        -0.99998247623443604,
        -0.99999922513961792,
        -0.99991524219512939
      ],
      "type": "VEC3"
    },
    {
      "bufferView": 3,
      "componentType": 5126,
      "count": 45504,
      "max": [
        1,
        0.99999982118606567,
        1,
        1
      ],
      "min": [
        -1,
        -0.9999992847442627,
        -1,
        -1
      ],
      "type": "VEC4"
    },
    {
      "bufferView": 1,
      "componentType": 5126,
      "count": 45504,
      "max": [
        0.99500000476837158,
        0.91498297452926636
      ],
      "min": [
        0.004999999888241291,
        0.004999999888241291
      ],
      "type": "VEC2"
    },
    {
      "bufferView": 0,
      "componentType": 5125,
      "count": 240240,
      "max": [
        45503
      ],
      "min": [
        0
      ],
      "type": "SCALAR"
    }
  ],
  "asset": {
    "extras": {
      "author": "grafi (https://sketchfab.com/zdenkoroman)",
      "license": "CC-BY-4.0 (http://creativecommons.org/licenses/by/4.0/)",
      "source": "https://sketchfab.com/3d-models/puma-shoe-purple-3d-scan-a6d4580e699c4fa1a5967dff3cd4609f",
      "title": "Puma Shoe Purple 3D Scan"
    },
    "generator": "Sketchfab-10.7.0",
    "version": "2.0"
  },
  "bufferViews": [
    {
      "buffer": 0,
      "byteLength": 960960,
      "byteOffset": 0,
      "name": "floatBufferViews",
      "target": 34963
    },
    {
      "buffer": 0,
      "byteLength": 364032,
      "byteOffset": 960960,
      "byteStride": 8,
      "name": "floatBufferViews",
      "target": 34962
    },
    {
      "buffer": 0,
      "byteLength": 1092096,
      "byteOffset": 1324992,
      "byteStride": 12,
      "name": "floatBufferViews",
      "target": 34962
    },
    {
      "buffer": 0,
      "byteLength": 728064,
      "byteOffset": 2417088,
      "byteStride": 16,
      "name": "floatBufferViews",
      "target": 34962
    }
  ],
  "buffers": [
    {
      "byteLength": 3145152,
      "uri": "scene.bin"
    }
  ],
  "extensionsRequired": [
    "KHR_materials_pbrSpecularGlossiness"
  ],
  "extensionsUsed": [
    "KHR_materials_pbrSpecularGlossiness"
  ],
  "images": [
    {
      "uri": "textures/default_diffuse.jpeg"
    },
    {
      "uri": "textures/default_specularGlossiness.png"
    },
    {
      "uri": "textures/default_normal.png"
    }
  ],
  "materials": [
    {
      "doubleSided": true,
      "extensions": {
        "KHR_materials_pbrSpecularGlossiness": {
          "diffuseFactor": [
            1,
            1,
            1,
            1
          ],
          "diffuseTexture": {
            "index": 0,
            "texCoord": 0
          },
          "glossinessFactor": 1,
          "specularFactor": [
            0,
            0,
            0
          ],
          "specularGlossinessTexture": {
            "index": 1,
            "texCoord": 0
          }
        }
      },
      "name": "default",
      "normalTexture": {
        "index": 2,
        "scale": 1,
        "texCoord": 0
      }
    }
  ],
  "meshes": [
    {
      "primitives": [
        {
          "attributes": {
            "NORMAL": 1,
            "POSITION": 0,
            "TANGENT": 2,
            "TEXCOORD_0": 3
          },
          "indices": 4,
          "material": 0,
          "mode": 4
        }
      ]
    }
  ],
  "nodes": [
    {
      "children": [
        1
      ],
      "name": "RootNode (gltf orientation matrix)",
      "rotation": [
        -0.70710678118654746,
        -0,
        -0,
        0.70710678118654757
      ]
    },
    {
      "children": [
        2
      ],
      "matrix": [
        -0.99952584505081177,
        0.0047516259364783764,
        -0.03042173944413662,
        0,
        0.030420528724789619,
        -0.00032711963285692036,
        -0.99953711032867432,
        0,
        -0.0047593782655894756,
        -0.99998867511749268,
        0.00018241755606140941,
        0,
        0.010719752870500088,
        -0.045769918709993362,
        -0.04556969553232193,
        1
      ],
      "name": "RootNode (model correction matrix)"
    },
    {
      "children": [
        3
      ],
      "name": "puma_low.obj.cleaner.materialmerger.gles"
    },
    {
      "mesh": 0,
      "name": ""
    }
  ],
  "samplers": [
    {
      "magFilter": 9729,
      "minFilter": 9987,
      "wrapS": 10497,
      "wrapT": 10497
    }
  ],
  "scene": 0,
  "scenes": [
    {
      "name": "OSG_Scene",
      "nodes": [
        0
      ]
    }
  ],
  "textures": [
    {
      "sampler": 0,
      "source": 0
    },
    {
      "sampler": 0,
      "source": 1
    },
    {
      "sampler": 0,
      "source": 2
    }
  ]
}

